<?xml version="1.0" encoding="UTF-8" standalone="no"?>
<svg
   xmlns:osb="http://www.openswatchbook.org/uri/2009/osb"
   xmlns:dc="http://purl.org/dc/elements/1.1/"
   xmlns:cc="http://creativecommons.org/ns#"
   xmlns:rdf="http://www.w3.org/1999/02/22-rdf-syntax-ns#"
   xmlns:svg="http://www.w3.org/2000/svg"
   xmlns="http://www.w3.org/2000/svg"
   width="210mm"
   height="297mm"
   viewBox="0 0 210 297"
   version="1.1"
   id="svg2303">
  <defs
     id="defs2297">
    <linearGradient
       id="linearGradient10645"
       osb:paint="solid">
      <stop
         style="stop-color:#161c5e;stop-opacity:1;"
         offset="0"
         id="stop10643" />
    </linearGradient>
  </defs>
  <metadata
     id="metadata2300">
    <rdf:RDF>
      <cc:Work
         rdf:about="">
        <dc:format>image/svg+xml</dc:format>
        <dc:type
           rdf:resource="http://purl.org/dc/dcmitype/StillImage" />
        <dc:title></dc:title>
      </cc:Work>
    </rdf:RDF>
  </metadata>
  <g
     style="fill:#993300;fill-opacity:1"
     id="layer1">
    <path
       style="fill:#993300;fill-opacity:1;stroke-width:0.75595242"
       d="M 101.56026,218.25225 C 96.048747,209.6633 84.958517,184.40278 78.945597,166.7422 c -2.29365,-6.73669 -2.77681,-9.30148 -3.04767,-16.17822 -0.41179,-10.45485 0.60162,-13.33973 6.93945,-19.75455 6.79666,-6.87921 9.58803,-7.98251 20.173023,-7.97347 7.56607,0.006 9.1374,0.23721 12.60302,1.8507 5.46089,2.54244 11.06636,8.01802 13.7919,13.47231 3.96209,7.92884 3.03988,17.3713 -3.37558,34.56246 -7.32581,19.63058 -20.2914,49.13691 -21.59161,49.13691 -0.31012,0 -1.60516,-1.62274 -2.87787,-3.60609 z m 11.04573,-48.98344 c 12.20223,-6.08063 15.07217,-20.24076 6.42471,-31.69916 -4.00004,-5.3003 -8.0231,-7.18611 -15.28522,-7.16495 -8.663703,0.0252 -13.323043,2.665 -18.156533,10.28663 -2.03954,3.21603 -2.283,4.23161 -2.283,9.52381 0,10.77467 4.6315,17.31653 14.3631,20.28747 4.305373,1.31439 10.919803,0.76803 14.936943,-1.2338 z"
       id="path5789" />
  </g>
  <ellipse
     ry="20.032738"
     rx="20.788691"
     cy="150.41934"
     cx="104.45339"
     id="path1545"
     style="fill:#ffffff;fill-opacity:1;stroke-width:0.25977111" />
</svg>
